<svg xmlns="http://www.w3.org/2000/svg" viewBox="0 0 1200 420" role="img" aria-label="MHN developer logo">

<defs>
 <linearGradient id="g1" x1="0" y1="0" x2="1" y2="1">
  <stop offset="0" stop-color="#17102F"/><stop offset=".46" stop-color="#5425C9"/><stop offset="1" stop-color="#7547EA"/>
 </linearGradient>
 <linearGradient id="g2" x1="0" y1="0" x2="1" y2="1">
  <stop offset="0" stop-color="#B966EA"/><stop offset=".48" stop-color="#7547EA"/><stop offset="1" stop-color="#5425C9"/>
 </linearGradient>
 <linearGradient id="g3" x1="0" y1="1" x2="1" y2="0">
  <stop offset="0" stop-color="#5425C9"/><stop offset=".55" stop-color="#B966EA"/><stop offset="1" stop-color="#7C55E7"/>
 </linearGradient>
</defs>
<!-- M -->
<path d="M70 340V90h70l145 150L430 90h70v250h-72V190L285 340 142 190v150Z" fill="url(#g1)"/>
<path d="M70 90h70l145 150L430 90h70L285 326Z" fill="url(#g2)"/>
<!-- code symbol -->
<g fill="none" stroke="#7C55E7" stroke-width="17" stroke-linecap="round" stroke-linejoin="round">
 <path d="M235 55l-28 24 28 24"/><path d="M335 55l28 24-28 24"/><path d="M310 43l-40 75"/>
</g>
<!-- H -->
<path d="M535 90h70v92h125V90h70v250h-70v-94H605v94h-70Z" fill="url(#g1)"/>
<path d="M605 182h125v64H605Z" fill="url(#g2)"/>
<g stroke="#7C55E7" stroke-width="8" stroke-linecap="round">
 <path d="M635 199h48"/><path d="M635 216h29"/><path d="M676 216h32"/><path d="M635 233h55"/>
</g>
<!-- N -->
<path d="M840 340V90h70l170 150V90h72v250h-70L912 190v150Z" fill="url(#g1)"/>
<path d="M840 90h70l170 150v100h-30L880 190h-40Z" fill="url(#g2)"/>
<!-- pixels -->
<rect x="1080" y="112" width="20" height="20" rx="4" fill="#7C55E7"/>
<rect x="1110" y="142" width="16" height="16" rx="3" fill="#7C55E7" opacity=".75"/>
<rect x="1092" y="170" width="12" height="12" rx="3" fill="#7C55E7" opacity=".5"/>
</svg>